# File produced by Open Asset Import Library (http://www.assimp.sf.net)
# (assimp v3.1.71981620)

mtllib sci_fi_floor.mtl

# 8 vertex positions
v  -19.939 0.0383569 -19.686
v  -19.939 0.0383569 20.314
v  20.061 0.0383569 20.314
v  20.061 0.0383569 -19.686
v  -19.939 -3.7049 20.314
v  -19.939 -3.7049 -19.686
v  20.061 -3.7049 -19.686
v  20.061 -3.7049 20.314

# 20 UV coordinates
vt 0.166585 0.91727 0
vt 0.166585 0.0886626 0
vt 0.995192 0.0886626 0
vt 0.995192 0.91727 0
vt 0.834477 0.001 0
vt 0.834477 0.0785423 0
vt 0.00587013 0.0785423 0
vt 0.00587013 0.001 0
vt 0.0785423 0.9124 0
vt 0.001 0.9124 0
vt 0.00100003 0.0837925 0
vt 0.0785423 0.0837925 0
vt 0.829607 0.921458 0
vt 0.829607 0.999 0
vt 0.001 0.999 0
vt 0.001 0.921458 0
vt 0.161335 0.91727 0
vt 0.0837925 0.91727 0
vt 0.0837925 0.0886626 0
vt 0.161335 0.0886626 0

# 5 vertex normals
vn 0 1 6.12323e-17
vn -1 0 0
vn 0 6.12323e-17 -1
vn 1 0 0
vn 0 -6.12323e-17 1

# Mesh 'floor_floor' with 10 faces
g floor_floor
usemtl 01 - Default
f  1/1/1 2/2/1 3/3/1
f  3/3/1 4/4/1 1/1/1
f  5/5/2 2/6/2 1/7/2
f  1/7/2 6/8/2 5/5/2
f  6/9/3 1/10/3 4/11/3
f  4/11/3 7/12/3 6/9/3
f  7/13/4 4/14/4 3/15/4
f  3/15/4 8/16/4 7/13/4
f  8/17/5 3/18/5 2/19/5
f  2/19/5 5/20/5 8/17/5

